<svg xmlns="http://www.w3.org/2000/svg" width="512" height="512" viewBox="0 0 512 512">
  <defs>
    <linearGradient id="bg" x1="0" y1="0" x2="1" y2="1">
      <stop offset="0%" stop-color="#0f766e" />
      <stop offset="100%" stop-color="#0ea5e9" />
    </linearGradient>
  </defs>
  <rect width="512" height="512" rx="112" fill="url(#bg)" />
  <path
    d="M167 177a28 28 0 0 1 28 28v102a28 28 0 1 1-56 0V205a28 28 0 0 1 28-28Zm89 0a28 28 0 0 1 28 28v102a28 28 0 1 1-56 0V205a28 28 0 0 1 28-28Zm89 0a28 28 0 0 1 28 28v102a28 28 0 1 1-56 0V205a28 28 0 0 1 28-28Z"
    fill="#ffffff"
  />
  <circle cx="256" cy="386" r="20" fill="#ffffff" fill-opacity="0.95" />
</svg>
